<svg width="213" height="131" viewBox="0 0 213 131" fill="none" xmlns="http://www.w3.org/2000/svg">
<path d="M139.022 19.6772L129.678 7.35523C129.317 6.8791 129.451 6.19467 129.965 5.89037L133.378 3.87128C135.002 2.9102 136.748 2.17245 138.569 1.67797L141.919 0.768559C143.798 0.258444 145.736 0 147.683 0H210.567C211.46 0 211.905 1.08265 211.27 1.711L209.575 3.38736C206.964 5.96923 204.609 8.79731 202.543 11.8322L201.066 14.0014C200.321 15.0953 199.083 15.75 197.759 15.75H151.941C151.01 15.75 150.091 15.9669 149.258 16.3834L141.51 20.2576C140.649 20.688 139.603 20.4442 139.022 19.6772Z" fill="#B81D23"/>
<path d="M107.788 78.32L97.8018 62.5967C97.0949 61.4837 95.5233 61.3473 94.6352 62.3219L92.1311 65.0698C90.8047 66.5253 88.9265 67.3548 86.9572 67.3548H49.065H42.579C40.7579 67.3548 38.9488 67.0596 37.2222 66.4807L35.9766 66.063C32.8667 65.0203 30.2075 62.9444 28.4412 60.1805C26.8311 57.6613 25.9756 54.7339 25.9756 51.7441V36.3719C25.9756 34.6376 26.6194 32.9651 27.7823 31.6784L29.2768 30.0246C30.9161 28.2108 32.8029 26.6373 34.8817 25.3505L36.1077 24.5916C38.1631 23.3192 40.5327 22.6452 42.9501 22.6452H71.6911C75.4528 22.6452 79.2038 23.0448 82.881 23.8375L85.9226 24.4931C90.8893 25.5637 95.473 27.9605 99.186 31.4287C100.726 32.867 101.622 34.8643 101.673 36.9708L102.061 52.9667C102.133 55.9419 102.857 58.8651 104.182 61.5301C105.146 63.4702 106.348 65.2831 107.759 66.927L108.681 68.0009C113.915 74.0966 120.247 79.1555 127.347 82.9147L129.889 84.2605C135.581 87.2741 141.878 88.9705 148.314 89.2244L167.976 90H191.106C195.056 90 198.752 88.0567 200.991 84.8033L210.843 70.4887C211.756 69.1618 210.806 67.3548 209.196 67.3548H149.605C148.387 67.3548 147.173 67.2178 145.986 66.9464L143.764 66.4385C138.219 65.1707 133.444 61.6662 130.573 56.7557C129.73 55.3142 129.114 53.7517 128.746 52.123L126.415 41.8064L124.025 29.3895C123.323 25.7398 121.618 22.3579 119.101 19.6234L112.635 12.5995C109.935 9.66548 106.545 7.45065 102.774 6.1552L92.117 2.49481C87.308 0.843034 82.2585 0 77.1738 0H47.5775C42.0683 0 36.6002 0.948431 31.4128 2.80374L24.4714 5.28639C17.1739 7.89638 10.8195 12.6214 6.21906 18.8586L4.29501 21.4672C1.50518 25.2496 0 29.8261 0 34.5261V52.2357C0 58.9898 2.44138 65.5163 6.87416 70.6123L12.0239 76.5325C14.7405 79.6555 18.19 82.0551 22.0628 83.516L29.1865 86.2031C35.842 88.7137 42.8966 90 50.0099 90H78.5339C85.7496 90 92.8894 88.5266 99.5156 85.67L106.444 82.6833C108.139 81.9525 108.778 79.8784 107.788 78.32Z" fill="#B81D23"/>
<path d="M55.0156 120.859C55.0156 119.938 55.1849 119.094 55.5234 118.328C55.862 117.562 56.3359 116.906 56.9453 116.359C57.5599 115.807 58.2943 115.38 59.1484 115.078C60.0078 114.776 60.9583 114.625 62 114.625C63.0365 114.625 63.9844 114.776 64.8438 115.078C65.7031 115.38 66.4375 115.807 67.0469 116.359C67.6615 116.906 68.138 117.562 68.4766 118.328C68.8151 119.094 68.9844 119.938 68.9844 120.859C68.9844 121.786 68.8151 122.638 68.4766 123.414C68.138 124.185 67.6615 124.849 67.0469 125.406C66.4375 125.964 65.7031 126.398 64.8438 126.711C63.9844 127.018 63.0365 127.172 62 127.172C60.9583 127.172 60.0078 127.018 59.1484 126.711C58.2943 126.398 57.5599 125.964 56.9453 125.406C56.3359 124.849 55.862 124.185 55.5234 123.414C55.1849 122.638 55.0156 121.786 55.0156 120.859ZM57.4922 120.859C57.4922 121.49 57.6042 122.057 57.8281 122.562C58.0573 123.068 58.3724 123.5 58.7734 123.859C59.1797 124.214 59.6562 124.487 60.2031 124.68C60.7552 124.872 61.3542 124.969 62 124.969C62.6458 124.969 63.2422 124.872 63.7891 124.68C64.3411 124.487 64.8177 124.214 65.2188 123.859C65.6198 123.5 65.9349 123.068 66.1641 122.562C66.3932 122.057 66.5078 121.49 66.5078 120.859C66.5078 120.229 66.3932 119.664 66.1641 119.164C65.9349 118.664 65.6198 118.242 65.2188 117.898C64.8177 117.549 64.3411 117.284 63.7891 117.102C63.2422 116.919 62.6458 116.828 62 116.828C61.3542 116.828 60.7552 116.919 60.2031 117.102C59.6562 117.284 59.1797 117.549 58.7734 117.898C58.3724 118.242 58.0573 118.664 57.8281 119.164C57.6042 119.664 57.4922 120.229 57.4922 120.859ZM71.7188 114.789H74.1953L81.8047 118.773V114.789H84.2812V127H81.8047V121.398L74.1953 117.438V127H71.7188V114.789ZM87.7344 114.789H98.1328V116.961H90.2109V119.398H97.2266V121.438H90.2109V124.836H98.2969V127H87.7344V114.789ZM105.617 120.82C105.617 119.951 105.781 119.141 106.109 118.391C106.438 117.635 106.911 116.982 107.531 116.43C108.156 115.872 108.917 115.435 109.812 115.117C110.714 114.799 111.732 114.641 112.867 114.641C113.862 114.641 114.773 114.742 115.602 114.945C116.435 115.143 117.208 115.448 117.922 115.859L116.781 117.734C116.568 117.594 116.32 117.469 116.039 117.359C115.763 117.25 115.466 117.159 115.148 117.086C114.836 117.008 114.51 116.948 114.172 116.906C113.839 116.865 113.508 116.844 113.18 116.844C112.388 116.844 111.682 116.943 111.062 117.141C110.443 117.333 109.919 117.607 109.492 117.961C109.07 118.31 108.747 118.729 108.523 119.219C108.305 119.703 108.195 120.237 108.195 120.82C108.195 121.424 108.31 121.979 108.539 122.484C108.768 122.99 109.099 123.427 109.531 123.797C109.969 124.161 110.5 124.448 111.125 124.656C111.755 124.859 112.466 124.961 113.258 124.961C113.617 124.961 113.974 124.935 114.328 124.883C114.682 124.831 115.023 124.76 115.352 124.672C115.685 124.578 116.005 124.469 116.312 124.344C116.62 124.214 116.906 124.073 117.172 123.922L118.312 125.797C117.646 126.224 116.875 126.56 116 126.805C115.125 127.044 114.195 127.164 113.211 127.164C111.956 127.164 110.854 127.003 109.906 126.68C108.958 126.352 108.167 125.904 107.531 125.336C106.896 124.763 106.417 124.091 106.094 123.32C105.776 122.544 105.617 121.711 105.617 120.82ZM125.211 114.789H127.836L133.742 127H131.141L130.164 124.945H123.031L122.086 127H119.477L125.211 114.789ZM129.188 122.906L126.547 117.359L123.977 122.906H129.188ZM135.641 114.789H138.117V124.828H145.219V127H135.641V114.789ZM147.625 114.789H150.102V124.828H157.203V127H147.625V114.789Z" fill="#B81D23"/>
</svg>
